<svg xmlns="http://www.w3.org/2000/svg" version="1.1" xmlns:xlink="http://www.w3.org/1999/xlink" width="512" height="512" x="0" y="0" viewBox="0 0 512 512" style="enable-background:new 0 0 512 512" xml:space="preserve" class=""><g><path fill="#617882" d="M497 339H369V173h128c8.284 0 15-6.716 15-15s-6.716-15-15-15H369V15c0-8.284-6.716-15-15-15s-15 6.716-15 15v128H173V15c0-8.284-6.716-15-15-15s-15 6.716-15 15v128H15c-8.284 0-15 6.716-15 15s6.716 15 15 15h128v166H15c-8.284 0-15 6.716-15 15s6.716 15 15 15h128v128c0 8.284 6.716 15 15 15s15-6.716 15-15V369h166v128c0 8.284 6.716 15 15 15s15-6.716 15-15V369h128c8.284 0 15-6.716 15-15s-6.716-15-15-15zm-324 0V173h166v166z" opacity="1" data-original="#617882" class=""></path><path fill="#479ddc" d="M60 0C26.916 0 0 26.916 0 60s26.916 60 60 60 60-26.916 60-60S93.084 0 60 0zm0 90c-16.542 0-30-13.458-30-30s13.458-30 30-30 30 13.458 30 30-13.458 30-30 30z" opacity="1" data-original="#72b8f2" class=""></path><path fill="#63a1e9" d="M452 392c-33.084 0-60 26.916-60 60s26.916 60 60 60 60-26.916 60-60-26.916-60-60-60zm0 90c-16.542 0-30-13.458-30-30s13.458-30 30-30 30 13.458 30 30-13.458 30-30 30z" opacity="1" data-original="#63a1e9" class=""></path><path fill="#dc475a" d="M110.606 401.394c-5.857-5.857-15.355-5.857-21.213 0L60 430.787l-29.394-29.394c-5.857-5.857-15.355-5.857-21.213 0s-5.858 15.355 0 21.213L38.787 452 9.394 481.394c-5.858 5.857-5.858 15.355 0 21.213C12.322 505.535 16.161 507 20 507s7.678-1.465 10.606-4.394L60 473.213l29.394 29.394C92.322 505.535 96.161 507 100 507s7.678-1.465 10.606-4.394c5.858-5.857 5.858-15.355 0-21.213L81.213 452l29.394-29.394c5.857-5.857 5.857-15.355-.001-21.212z" opacity="1" data-original="#ed6d7d" class=""></path><path fill="#479ddc" d="M256 196c-33.084 0-60 26.916-60 60s26.916 60 60 60 60-26.916 60-60-26.916-60-60-60zm0 90c-16.542 0-30-13.458-30-30s13.458-30 30-30 30 13.458 30 30-13.458 30-30 30z" opacity="1" data-original="#72b8f2" class=""></path><path fill="#63a1e9" d="M256 196v30c16.542 0 30 13.458 30 30s-13.458 30-30 30v30c33.084 0 60-26.916 60-60s-26.916-60-60-60z" opacity="1" data-original="#63a1e9" class=""></path><path fill="#dc475a" d="M205.394 110.606c2.928 2.93 6.767 4.394 10.606 4.394s7.678-1.464 10.606-4.394L256 81.213l29.394 29.394C288.322 113.536 292.161 115 296 115s7.678-1.464 10.606-4.394c5.858-5.858 5.858-15.355 0-21.213L277.213 60l29.394-29.394c5.858-5.858 5.858-15.355 0-21.213-5.857-5.858-15.355-5.858-21.213 0L256 38.787 226.606 9.394c-5.857-5.858-15.355-5.858-21.213 0s-5.858 15.355 0 21.213L234.787 60l-29.394 29.394c-5.857 5.857-5.857 15.355.001 21.212z" opacity="1" data-original="#ed6d7d" class=""></path><path fill="#d44854" d="M296 115c3.839 0 7.678-1.464 10.606-4.394 5.858-5.858 5.858-15.355 0-21.213L277.213 60l29.394-29.394c5.858-5.858 5.858-15.355 0-21.213-5.857-5.858-15.355-5.858-21.213 0L256 38.787v42.426l29.394 29.394A14.95 14.95 0 0 0 296 115z" opacity="1" data-original="#d44854" class=""></path><path fill="#5c5c5c" d="M173 339V173h83v-30h-83V15c0-8.284-6.716-15-15-15s-15 6.716-15 15v128H15c-8.284 0-15 6.716-15 15s6.716 15 15 15h128v166H15c-8.284 0-15 6.716-15 15s6.716 15 15 15h128v128c0 8.284 6.716 15 15 15s15-6.716 15-15V369h83v-30z" opacity="1" data-original="#5a5555" class=""></path><path fill="#5c5c5c" d="M497 339H369V173h128c8.284 0 15-6.716 15-15s-6.716-15-15-15H369V15c0-8.284-6.716-15-15-15s-15 6.716-15 15v128h-83v30h83v166h-83v30h83v128c0 8.284 6.716 15 15 15s15-6.716 15-15V369h128c8.284 0 15-6.716 15-15s-6.716-15-15-15z" opacity="1" data-original="#453f3f" class=""></path></g></svg>